<?xml version="1.0" ?><svg viewBox="0 0 64 64" xmlns="http://www.w3.org/2000/svg" xmlns:xlink="http://www.w3.org/1999/xlink"><defs><style>.cls-1,.cls-5{fill:none;}.cls-2{fill:#ffce56;}.cls-3{fill:#eaeaea;}.cls-4{fill:#4c241d;}.cls-5,.cls-6,.cls-7,.cls-8,.cls-9{stroke:#4c241d;stroke-linecap:round;stroke-linejoin:round;stroke-width:2px;}.cls-6{fill:#bf7e68;}.cls-7{fill:url(#New_Pattern_Swatch_8);}.cls-8{fill:#e66353;}.cls-9{fill:#a9ba5a;}</style><pattern data-name="New Pattern Swatch 8" height="75" id="New_Pattern_Swatch_8" patternTransform="translate(-26.4263 10.5529) scale(0.898 0.8772)" patternUnits="userSpaceOnUse" viewBox="0 0 75 75" width="75"><rect class="cls-1" height="75" width="75"/><rect class="cls-2" height="75" width="75"/></pattern></defs><g id="pizza"><circle class="cls-3" cx="29" cy="25" r="23"/><circle class="cls-4" cx="27" cy="11" r="1"/><line class="cls-5" x1="16" x2="19" y1="6" y2="9"/><line class="cls-5" x1="19" x2="16" y1="6" y2="9"/><path class="cls-6" d="M58.6705,36.3329a8.4313,8.4313,0,0,1,0-4.6658,8.4772,8.4772,0,0,0-2.3172-8.4851v0a8.5487,8.5487,0,0,1-2.3778-4.0407,8.6707,8.6707,0,0,0-6.331-6.2115,8.7923,8.7923,0,0,1-4.1184-2.3329,8.8662,8.8662,0,0,0-8.6483-2.2736A8.89,8.89,0,0,1,33,8.6125V34L14.6569,14.1283a8.5765,8.5765,0,0,0-3.6324,5.0129,8.5487,8.5487,0,0,1-2.3778,4.0407v0A8.4772,8.4772,0,0,0,6.33,31.6671a8.4313,8.4313,0,0,1,0,4.6658h0A8.4773,8.4773,0,0,0,8.6467,44.818a8.55,8.55,0,0,1,2.3778,4.0408,8.671,8.671,0,0,0,6.331,6.2115,8.7914,8.7914,0,0,1,4.1184,2.3329,8.8664,8.8664,0,0,0,8.6483,2.2736,8.9131,8.9131,0,0,1,4.7556,0,8.8664,8.8664,0,0,0,8.6483-2.2736A8.7914,8.7914,0,0,1,47.6445,55.07a8.671,8.671,0,0,0,6.331-6.2115,8.55,8.55,0,0,1,2.3778-4.0408,8.4773,8.4773,0,0,0,2.3172-8.4851Z"/><path class="cls-7" d="M53.1387,30.2148a8.7727,8.7727,0,0,1-.8274-3.0161,8.8956,8.8956,0,0,0-3.8754-6.5561,9.0452,9.0452,0,0,1-2.26-2.208,9.1955,9.1955,0,0,0-6.7123-3.7852,9.32,9.32,0,0,1-3.0878-.8081h0A9.3039,9.3039,0,0,0,33,13.0265V34L18.7318,18.5427a9.0443,9.0443,0,0,1-2.1677,2.1,8.8956,8.8956,0,0,0-3.8754,6.5561,8.7727,8.7727,0,0,1-.8274,3.0161,8.7482,8.7482,0,0,0,0,7.57,8.7721,8.7721,0,0,1,.8274,3.016v0a8.8956,8.8956,0,0,0,3.8754,6.5561,9.0449,9.0449,0,0,1,2.26,2.2079,9.1949,9.1949,0,0,0,6.7123,3.7852,9.32,9.32,0,0,1,3.0878.8082h0a9.3463,9.3463,0,0,0,7.7506,0h0a9.32,9.32,0,0,1,3.0878-.8082,9.1949,9.1949,0,0,0,6.7123-3.7852,9.0449,9.0449,0,0,1,2.26-2.2079,8.8956,8.8956,0,0,0,3.8754-6.5561v0a8.7721,8.7721,0,0,1,.8274-3.016A8.7482,8.7482,0,0,0,53.1387,30.2148Z"/><line class="cls-5" x1="33" x2="33" y1="38" y2="55"/><line class="cls-5" x1="37.3688" x2="49" y1="31.9918" y2="26"/><line class="cls-5" x1="16" x2="29.1202" y1="43" y2="36.2411"/><circle class="cls-8" cx="44" cy="38" r="3"/><circle class="cls-8" cx="19" cy="30" r="3"/><circle class="cls-8" cx="42" cy="43" r="3"/><path class="cls-5" d="M28,45v3a2,2,0,0,1-2,2h0a2,2,0,0,1-2-2V43"/><circle class="cls-4" cx="49" cy="33" r="1"/><ellipse class="cls-9" cx="41" cy="23" rx="2" ry="3"/><ellipse class="cls-9" cx="23" cy="33" rx="3" ry="2"/><path class="cls-7" d="M40,51v3.5A1.5,1.5,0,0,1,38.5,56h0A1.5,1.5,0,0,1,37,54.5V51"/></g></svg>